<mxfile host="app.diagrams.net" modified="2022-08-12T04:40:23.147Z" agent="5.0 (Macintosh; Intel Mac OS X 10_15_7) AppleWebKit/537.36 (KHTML, like Gecko) Chrome/103.0.0.0 Safari/537.36" etag="RNLlzbB8evxQOEyD9eAo" version="20.2.3" type="github">
  <diagram id="oRE_cCWt2zf3UAjkB4wK" name="페이지-1">
    <mxGraphModel dx="1580" dy="2266" grid="1" gridSize="10" guides="1" tooltips="1" connect="1" arrows="1" fold="1" page="1" pageScale="1" pageWidth="827" pageHeight="1169" math="0" shadow="0">
      <root>
        <mxCell id="0" />
        <mxCell id="1" parent="0" />
        <mxCell id="5vfyrUOiTw-HqMpe8hi3-8" value="User" style="sketch=0;outlineConnect=0;fontColor=#232F3E;gradientColor=none;strokeColor=#232F3E;fillColor=#ffffff;dashed=0;verticalLabelPosition=bottom;verticalAlign=top;align=center;html=1;fontSize=12;fontStyle=0;aspect=fixed;shape=mxgraph.aws4.resourceIcon;resIcon=mxgraph.aws4.user;" vertex="1" parent="1">
          <mxGeometry x="30" y="860" width="60" height="60" as="geometry" />
        </mxCell>
        <mxCell id="5vfyrUOiTw-HqMpe8hi3-11" value="Availability zone" style="sketch=0;outlineConnect=0;gradientColor=none;html=1;whiteSpace=wrap;fontSize=12;fontStyle=0;shape=mxgraph.aws4.group;grIcon=mxgraph.aws4.group_availability_zone;strokeColor=#545B64;fillColor=none;verticalAlign=top;align=left;spacingLeft=30;fontColor=#545B64;dashed=1;" vertex="1" parent="1">
          <mxGeometry x="480" y="-190" width="130" height="320" as="geometry" />
        </mxCell>
        <mxCell id="5vfyrUOiTw-HqMpe8hi3-19" value="Amazon S3" style="sketch=0;outlineConnect=0;fontColor=#232F3E;gradientColor=none;strokeColor=#ffffff;fillColor=#232F3E;dashed=0;verticalLabelPosition=middle;verticalAlign=bottom;align=center;html=1;whiteSpace=wrap;fontSize=10;fontStyle=1;spacing=3;shape=mxgraph.aws4.productIcon;prIcon=mxgraph.aws4.s3;" vertex="1" parent="1">
          <mxGeometry x="190" y="622.5" width="80" height="100" as="geometry" />
        </mxCell>
        <mxCell id="5vfyrUOiTw-HqMpe8hi3-22" value="VPC" style="points=[[0,0],[0.25,0],[0.5,0],[0.75,0],[1,0],[1,0.25],[1,0.5],[1,0.75],[1,1],[0.75,1],[0.5,1],[0.25,1],[0,1],[0,0.75],[0,0.5],[0,0.25]];outlineConnect=0;gradientColor=none;html=1;whiteSpace=wrap;fontSize=12;fontStyle=0;container=0;pointerEvents=0;collapsible=0;recursiveResize=0;shape=mxgraph.aws4.group;grIcon=mxgraph.aws4.group_vpc;strokeColor=#248814;fillColor=none;verticalAlign=top;align=left;spacingLeft=30;fontColor=#AAB7B8;dashed=0;" vertex="1" parent="1">
          <mxGeometry x="460" y="410" width="1110" height="880" as="geometry" />
        </mxCell>
        <mxCell id="5vfyrUOiTw-HqMpe8hi3-23" value="Amazon Route 53" style="sketch=0;outlineConnect=0;fontColor=#232F3E;gradientColor=none;strokeColor=#ffffff;fillColor=#232F3E;dashed=0;verticalLabelPosition=middle;verticalAlign=bottom;align=center;html=1;whiteSpace=wrap;fontSize=10;fontStyle=1;spacing=3;shape=mxgraph.aws4.productIcon;prIcon=mxgraph.aws4.route_53;" vertex="1" parent="1">
          <mxGeometry x="190" y="835" width="80" height="110" as="geometry" />
        </mxCell>
        <mxCell id="5vfyrUOiTw-HqMpe8hi3-24" value="Internet&#xa;gateway" style="sketch=0;outlineConnect=0;fontColor=#232F3E;gradientColor=none;strokeColor=#232F3E;fillColor=#ffffff;dashed=0;verticalLabelPosition=bottom;verticalAlign=top;align=center;html=1;fontSize=12;fontStyle=0;aspect=fixed;shape=mxgraph.aws4.resourceIcon;resIcon=mxgraph.aws4.internet_gateway;" vertex="1" parent="1">
          <mxGeometry x="370" y="860" width="60" height="60" as="geometry" />
        </mxCell>
        <mxCell id="5vfyrUOiTw-HqMpe8hi3-27" value="" style="edgeStyle=orthogonalEdgeStyle;html=1;endArrow=none;elbow=vertical;startArrow=block;startFill=1;strokeColor=#545B64;rounded=0;" edge="1" parent="1" source="5vfyrUOiTw-HqMpe8hi3-23" target="5vfyrUOiTw-HqMpe8hi3-8">
          <mxGeometry width="100" relative="1" as="geometry">
            <mxPoint x="360" y="760" as="sourcePoint" />
            <mxPoint x="520" y="610" as="targetPoint" />
          </mxGeometry>
        </mxCell>
        <mxCell id="5vfyrUOiTw-HqMpe8hi3-28" value="" style="edgeStyle=orthogonalEdgeStyle;html=1;endArrow=none;elbow=vertical;startArrow=block;startFill=1;strokeColor=#545B64;rounded=0;" edge="1" parent="1" source="5vfyrUOiTw-HqMpe8hi3-24" target="5vfyrUOiTw-HqMpe8hi3-23">
          <mxGeometry width="100" relative="1" as="geometry">
            <mxPoint x="360" y="550" as="sourcePoint" />
            <mxPoint x="370" y="860" as="targetPoint" />
          </mxGeometry>
        </mxCell>
        <mxCell id="5vfyrUOiTw-HqMpe8hi3-29" value="" style="edgeStyle=orthogonalEdgeStyle;html=1;endArrow=none;elbow=vertical;startArrow=block;startFill=1;strokeColor=#545B64;rounded=0;" edge="1" parent="1" source="5vfyrUOiTw-HqMpe8hi3-26" target="5vfyrUOiTw-HqMpe8hi3-24">
          <mxGeometry width="100" relative="1" as="geometry">
            <mxPoint x="370" y="490" as="sourcePoint" />
            <mxPoint x="370" y="595" as="targetPoint" />
          </mxGeometry>
        </mxCell>
        <mxCell id="5vfyrUOiTw-HqMpe8hi3-44" value="" style="edgeStyle=orthogonalEdgeStyle;html=1;endArrow=none;elbow=vertical;startArrow=block;startFill=1;strokeColor=#545B64;rounded=0;" edge="1" parent="1" source="5vfyrUOiTw-HqMpe8hi3-19">
          <mxGeometry width="100" relative="1" as="geometry">
            <mxPoint x="320" y="770.0000000000005" as="sourcePoint" />
            <mxPoint x="230" y="820" as="targetPoint" />
          </mxGeometry>
        </mxCell>
        <mxCell id="5vfyrUOiTw-HqMpe8hi3-20" value="Public subnet" style="points=[[0,0],[0.25,0],[0.5,0],[0.75,0],[1,0],[1,0.25],[1,0.5],[1,0.75],[1,1],[0.75,1],[0.5,1],[0.25,1],[0,1],[0,0.75],[0,0.5],[0,0.25]];outlineConnect=0;gradientColor=none;html=1;whiteSpace=wrap;fontSize=12;fontStyle=0;container=1;pointerEvents=0;collapsible=0;recursiveResize=0;shape=mxgraph.aws4.group;grIcon=mxgraph.aws4.group_security_group;grStroke=0;strokeColor=#248814;fillColor=#E9F3E6;verticalAlign=top;align=left;spacingLeft=30;fontColor=#248814;dashed=0;" vertex="1" parent="1">
          <mxGeometry x="490" y="790" width="160" height="195" as="geometry" />
        </mxCell>
        <mxCell id="5vfyrUOiTw-HqMpe8hi3-26" value="Application Load Balancer" style="sketch=0;outlineConnect=0;fontColor=#232F3E;gradientColor=none;strokeColor=#ffffff;fillColor=#232F3E;dashed=0;verticalLabelPosition=middle;verticalAlign=bottom;align=center;html=1;whiteSpace=wrap;fontSize=10;fontStyle=1;spacing=3;shape=mxgraph.aws4.productIcon;prIcon=mxgraph.aws4.application_load_balancer;" vertex="1" parent="5vfyrUOiTw-HqMpe8hi3-20">
          <mxGeometry x="40" y="45" width="80" height="110" as="geometry" />
        </mxCell>
        <mxCell id="5vfyrUOiTw-HqMpe8hi3-33" value="Availability zone" style="sketch=0;outlineConnect=0;gradientColor=none;html=1;whiteSpace=wrap;fontSize=12;fontStyle=0;shape=mxgraph.aws4.group;grIcon=mxgraph.aws4.group_availability_zone;strokeColor=#545B64;fillColor=none;verticalAlign=top;align=left;spacingLeft=30;fontColor=#545B64;dashed=1;" vertex="1" parent="1">
          <mxGeometry x="730" y="450" width="790" height="450" as="geometry" />
        </mxCell>
        <mxCell id="5vfyrUOiTw-HqMpe8hi3-34" value="Private subnet" style="points=[[0,0],[0.25,0],[0.5,0],[0.75,0],[1,0],[1,0.25],[1,0.5],[1,0.75],[1,1],[0.75,1],[0.5,1],[0.25,1],[0,1],[0,0.75],[0,0.5],[0,0.25]];outlineConnect=0;gradientColor=none;html=1;whiteSpace=wrap;fontSize=12;fontStyle=0;container=0;pointerEvents=0;collapsible=0;recursiveResize=0;shape=mxgraph.aws4.group;grIcon=mxgraph.aws4.group_security_group;grStroke=0;strokeColor=#147EBA;fillColor=#E6F2F8;verticalAlign=top;align=left;spacingLeft=30;fontColor=#147EBA;dashed=0;" vertex="1" parent="1">
          <mxGeometry x="760" y="490" width="720" height="390" as="geometry" />
        </mxCell>
        <mxCell id="5vfyrUOiTw-HqMpe8hi3-35" value="Amazon EC2" style="sketch=0;outlineConnect=0;fontColor=#232F3E;gradientColor=none;strokeColor=#ffffff;fillColor=#232F3E;dashed=0;verticalLabelPosition=middle;verticalAlign=bottom;align=center;html=1;whiteSpace=wrap;fontSize=10;fontStyle=1;spacing=3;shape=mxgraph.aws4.productIcon;prIcon=mxgraph.aws4.ec2;" vertex="1" parent="1">
          <mxGeometry x="890" y="520" width="60" height="95" as="geometry" />
        </mxCell>
        <mxCell id="5vfyrUOiTw-HqMpe8hi3-36" value="Amazon RDS" style="sketch=0;outlineConnect=0;fontColor=#232F3E;gradientColor=none;strokeColor=#ffffff;fillColor=#232F3E;dashed=0;verticalLabelPosition=middle;verticalAlign=bottom;align=center;html=1;whiteSpace=wrap;fontSize=10;fontStyle=1;spacing=3;shape=mxgraph.aws4.productIcon;prIcon=mxgraph.aws4.rds;" vertex="1" parent="1">
          <mxGeometry x="1180" y="750" width="60" height="97.5" as="geometry" />
        </mxCell>
        <mxCell id="5vfyrUOiTw-HqMpe8hi3-37" value="" style="edgeStyle=orthogonalEdgeStyle;html=1;endArrow=none;elbow=vertical;startArrow=block;startFill=1;strokeColor=#545B64;rounded=0;" edge="1" parent="1" source="5vfyrUOiTw-HqMpe8hi3-35" target="5vfyrUOiTw-HqMpe8hi3-26">
          <mxGeometry width="100" relative="1" as="geometry">
            <mxPoint x="540" y="829.9999999999995" as="sourcePoint" />
            <mxPoint x="440" y="829.9999999999995" as="targetPoint" />
          </mxGeometry>
        </mxCell>
        <mxCell id="5vfyrUOiTw-HqMpe8hi3-46" value="&lt;font style=&quot;font-size: 14px;&quot;&gt;&lt;b style=&quot;&quot;&gt;매물 등록 서비스 &amp;amp; API&lt;/b&gt;&lt;/font&gt;" style="text;html=1;strokeColor=#CCFFFF;fillColor=#FFFFFF;align=center;verticalAlign=middle;whiteSpace=wrap;rounded=0;" vertex="1" parent="1">
          <mxGeometry x="780" y="580" width="100" height="30" as="geometry" />
        </mxCell>
        <mxCell id="5vfyrUOiTw-HqMpe8hi3-50" value="Amazon EC2" style="sketch=0;outlineConnect=0;fontColor=#232F3E;gradientColor=none;strokeColor=#ffffff;fillColor=#232F3E;dashed=0;verticalLabelPosition=middle;verticalAlign=bottom;align=center;html=1;whiteSpace=wrap;fontSize=10;fontStyle=1;spacing=3;shape=mxgraph.aws4.productIcon;prIcon=mxgraph.aws4.ec2;" vertex="1" parent="1">
          <mxGeometry x="1290" y="525" width="60" height="95" as="geometry" />
        </mxCell>
        <mxCell id="5vfyrUOiTw-HqMpe8hi3-52" value="&lt;font style=&quot;font-size: 14px;&quot;&gt;&lt;b style=&quot;&quot;&gt;3D 모델 생성 &lt;br&gt;서비스&lt;/b&gt;&lt;/font&gt;" style="text;html=1;strokeColor=#CCFFFF;fillColor=#FFFFFF;align=center;verticalAlign=middle;whiteSpace=wrap;rounded=0;" vertex="1" parent="1">
          <mxGeometry x="1360" y="580" width="100" height="35" as="geometry" />
        </mxCell>
        <mxCell id="5vfyrUOiTw-HqMpe8hi3-58" value="&lt;span style=&quot;font-size: 14px;&quot;&gt;&lt;b&gt;Redis&lt;/b&gt;&lt;/span&gt;" style="text;html=1;strokeColor=#CCFFFF;fillColor=#FFFFFF;align=center;verticalAlign=middle;whiteSpace=wrap;rounded=0;" vertex="1" parent="1">
          <mxGeometry x="1050" y="771.25" width="60" height="30" as="geometry" />
        </mxCell>
        <mxCell id="5vfyrUOiTw-HqMpe8hi3-59" value="" style="edgeStyle=orthogonalEdgeStyle;html=1;endArrow=none;elbow=vertical;startArrow=block;startFill=1;strokeColor=#545B64;rounded=0;" edge="1" parent="1" source="5vfyrUOiTw-HqMpe8hi3-57" target="5vfyrUOiTw-HqMpe8hi3-35">
          <mxGeometry width="100" relative="1" as="geometry">
            <mxPoint x="1130" y="718.7499999999995" as="sourcePoint" />
            <mxPoint x="950.0000000000002" y="719" as="targetPoint" />
            <Array as="points">
              <mxPoint x="930" y="570" />
            </Array>
          </mxGeometry>
        </mxCell>
        <mxCell id="5vfyrUOiTw-HqMpe8hi3-60" value="" style="edgeStyle=orthogonalEdgeStyle;html=1;endArrow=none;elbow=vertical;startArrow=none;startFill=1;strokeColor=#545B64;rounded=0;" edge="1" parent="1" source="5vfyrUOiTw-HqMpe8hi3-57" target="5vfyrUOiTw-HqMpe8hi3-35">
          <mxGeometry width="100" relative="1" as="geometry">
            <mxPoint x="1140" y="728.7499999999995" as="sourcePoint" />
            <mxPoint x="960.0000000000002" y="729" as="targetPoint" />
            <Array as="points" />
          </mxGeometry>
        </mxCell>
        <mxCell id="5vfyrUOiTw-HqMpe8hi3-61" value="Amazon S3" style="sketch=0;outlineConnect=0;fontColor=#232F3E;gradientColor=none;strokeColor=#ffffff;fillColor=#232F3E;dashed=0;verticalLabelPosition=middle;verticalAlign=bottom;align=center;html=1;whiteSpace=wrap;fontSize=10;fontStyle=1;spacing=3;shape=mxgraph.aws4.productIcon;prIcon=mxgraph.aws4.s3;" vertex="1" parent="1">
          <mxGeometry x="890" y="930" width="60" height="80" as="geometry" />
        </mxCell>
        <mxCell id="5vfyrUOiTw-HqMpe8hi3-62" value="AWS Lambda" style="sketch=0;outlineConnect=0;fontColor=#232F3E;gradientColor=none;strokeColor=#ffffff;fillColor=#232F3E;dashed=0;verticalLabelPosition=middle;verticalAlign=bottom;align=center;html=1;whiteSpace=wrap;fontSize=10;fontStyle=1;spacing=3;shape=mxgraph.aws4.productIcon;prIcon=mxgraph.aws4.lambda;" vertex="1" parent="1">
          <mxGeometry x="1140" y="925" width="60" height="90" as="geometry" />
        </mxCell>
        <mxCell id="5vfyrUOiTw-HqMpe8hi3-63" value="" style="edgeStyle=orthogonalEdgeStyle;html=1;endArrow=none;elbow=vertical;startArrow=block;startFill=1;strokeColor=#545B64;rounded=0;" edge="1" parent="1" source="5vfyrUOiTw-HqMpe8hi3-61" target="5vfyrUOiTw-HqMpe8hi3-35">
          <mxGeometry width="100" relative="1" as="geometry">
            <mxPoint x="1160" y="717.4999999999995" as="sourcePoint" />
            <mxPoint x="920" y="750" as="targetPoint" />
            <Array as="points" />
          </mxGeometry>
        </mxCell>
        <mxCell id="5vfyrUOiTw-HqMpe8hi3-66" value="" style="edgeStyle=orthogonalEdgeStyle;html=1;endArrow=none;elbow=vertical;startArrow=block;startFill=1;strokeColor=#545B64;rounded=0;" edge="1" parent="1" source="5vfyrUOiTw-HqMpe8hi3-62" target="5vfyrUOiTw-HqMpe8hi3-61">
          <mxGeometry width="100" relative="1" as="geometry">
            <mxPoint x="930.0000000000002" y="859.9999999999995" as="sourcePoint" />
            <mxPoint x="930.0000000000002" y="764.9999999999995" as="targetPoint" />
            <Array as="points" />
          </mxGeometry>
        </mxCell>
        <mxCell id="5vfyrUOiTw-HqMpe8hi3-69" value="" style="edgeStyle=orthogonalEdgeStyle;html=1;endArrow=none;elbow=vertical;startArrow=block;startFill=1;strokeColor=#545B64;rounded=0;" edge="1" parent="1" source="5vfyrUOiTw-HqMpe8hi3-50" target="5vfyrUOiTw-HqMpe8hi3-62">
          <mxGeometry width="100" relative="1" as="geometry">
            <mxPoint x="1140" y="899.9999999999995" as="sourcePoint" />
            <mxPoint x="960.0000000000002" y="899.9999999999995" as="targetPoint" />
            <Array as="points">
              <mxPoint x="1320" y="890" />
            </Array>
          </mxGeometry>
        </mxCell>
        <mxCell id="5vfyrUOiTw-HqMpe8hi3-70" value="" style="edgeStyle=orthogonalEdgeStyle;html=1;endArrow=none;elbow=vertical;startArrow=block;startFill=1;strokeColor=#545B64;rounded=0;" edge="1" parent="1" source="5vfyrUOiTw-HqMpe8hi3-36" target="5vfyrUOiTw-HqMpe8hi3-50">
          <mxGeometry width="100" relative="1" as="geometry">
            <mxPoint x="1330" y="764.9999999999995" as="sourcePoint" />
            <mxPoint x="1320" y="660" as="targetPoint" />
            <Array as="points">
              <mxPoint x="1210" y="574" />
            </Array>
          </mxGeometry>
        </mxCell>
        <mxCell id="5vfyrUOiTw-HqMpe8hi3-71" value="Availability zone" style="sketch=0;outlineConnect=0;gradientColor=none;html=1;whiteSpace=wrap;fontSize=12;fontStyle=0;shape=mxgraph.aws4.group;grIcon=mxgraph.aws4.group_availability_zone;strokeColor=#545B64;fillColor=none;verticalAlign=top;align=left;spacingLeft=30;fontColor=#545B64;dashed=1;" vertex="1" parent="1">
          <mxGeometry x="730" y="1050" width="790" height="210" as="geometry" />
        </mxCell>
        <mxCell id="5vfyrUOiTw-HqMpe8hi3-72" value="Private subnet" style="points=[[0,0],[0.25,0],[0.5,0],[0.75,0],[1,0],[1,0.25],[1,0.5],[1,0.75],[1,1],[0.75,1],[0.5,1],[0.25,1],[0,1],[0,0.75],[0,0.5],[0,0.25]];outlineConnect=0;gradientColor=none;html=1;whiteSpace=wrap;fontSize=12;fontStyle=0;container=0;pointerEvents=0;collapsible=0;recursiveResize=0;shape=mxgraph.aws4.group;grIcon=mxgraph.aws4.group_security_group;grStroke=0;strokeColor=#147EBA;fillColor=#E6F2F8;verticalAlign=top;align=left;spacingLeft=30;fontColor=#147EBA;dashed=0;" vertex="1" parent="1">
          <mxGeometry x="760" y="1080" width="720" height="160" as="geometry" />
        </mxCell>
        <mxCell id="5vfyrUOiTw-HqMpe8hi3-73" value="Amazon EC2" style="sketch=0;outlineConnect=0;fontColor=#232F3E;gradientColor=none;strokeColor=#ffffff;fillColor=#232F3E;dashed=0;verticalLabelPosition=middle;verticalAlign=bottom;align=center;html=1;whiteSpace=wrap;fontSize=10;fontStyle=1;spacing=3;shape=mxgraph.aws4.productIcon;prIcon=mxgraph.aws4.ec2;" vertex="1" parent="1">
          <mxGeometry x="890" y="1120" width="60" height="95" as="geometry" />
        </mxCell>
        <mxCell id="5vfyrUOiTw-HqMpe8hi3-76" value="&lt;font style=&quot;font-size: 14px;&quot;&gt;&lt;b style=&quot;&quot;&gt;매물 등록 서비스 &amp;amp; API&lt;/b&gt;&lt;/font&gt;" style="text;html=1;strokeColor=#CCFFFF;fillColor=#FFFFFF;align=center;verticalAlign=middle;whiteSpace=wrap;rounded=0;" vertex="1" parent="1">
          <mxGeometry x="780" y="1185" width="100" height="30" as="geometry" />
        </mxCell>
        <mxCell id="5vfyrUOiTw-HqMpe8hi3-77" value="Amazon EC2" style="sketch=0;outlineConnect=0;fontColor=#232F3E;gradientColor=none;strokeColor=#ffffff;fillColor=#232F3E;dashed=0;verticalLabelPosition=middle;verticalAlign=bottom;align=center;html=1;whiteSpace=wrap;fontSize=10;fontStyle=1;spacing=3;shape=mxgraph.aws4.productIcon;prIcon=mxgraph.aws4.ec2;" vertex="1" parent="1">
          <mxGeometry x="1290" y="1120" width="60" height="95" as="geometry" />
        </mxCell>
        <mxCell id="5vfyrUOiTw-HqMpe8hi3-78" value="&lt;font style=&quot;font-size: 14px;&quot;&gt;&lt;b style=&quot;&quot;&gt;3D 모델 생성 &lt;br&gt;서비스&lt;/b&gt;&lt;/font&gt;" style="text;html=1;strokeColor=#CCFFFF;fillColor=#FFFFFF;align=center;verticalAlign=middle;whiteSpace=wrap;rounded=0;" vertex="1" parent="1">
          <mxGeometry x="1180" y="1180" width="100" height="35" as="geometry" />
        </mxCell>
        <mxCell id="5vfyrUOiTw-HqMpe8hi3-84" value="" style="edgeStyle=orthogonalEdgeStyle;html=1;endArrow=none;elbow=vertical;startArrow=block;startFill=1;strokeColor=#545B64;rounded=0;" edge="1" parent="1" source="5vfyrUOiTw-HqMpe8hi3-73" target="5vfyrUOiTw-HqMpe8hi3-26">
          <mxGeometry width="100" relative="1" as="geometry">
            <mxPoint x="900" y="717.5714285714284" as="sourcePoint" />
            <mxPoint x="580.0000000000002" y="845" as="targetPoint" />
          </mxGeometry>
        </mxCell>
        <mxCell id="5vfyrUOiTw-HqMpe8hi3-85" value="" style="edgeStyle=orthogonalEdgeStyle;html=1;endArrow=none;elbow=vertical;startArrow=block;startFill=1;strokeColor=#545B64;rounded=0;" edge="1" parent="1" source="5vfyrUOiTw-HqMpe8hi3-61" target="5vfyrUOiTw-HqMpe8hi3-73">
          <mxGeometry width="100" relative="1" as="geometry">
            <mxPoint x="930" y="860" as="sourcePoint" />
            <mxPoint x="930" y="765" as="targetPoint" />
            <Array as="points" />
          </mxGeometry>
        </mxCell>
        <mxCell id="5vfyrUOiTw-HqMpe8hi3-86" value="" style="edgeStyle=orthogonalEdgeStyle;html=1;endArrow=none;elbow=vertical;startArrow=block;startFill=1;strokeColor=#545B64;rounded=0;" edge="1" parent="1" source="5vfyrUOiTw-HqMpe8hi3-77" target="5vfyrUOiTw-HqMpe8hi3-62">
          <mxGeometry width="100" relative="1" as="geometry">
            <mxPoint x="1330.0000000000005" y="765" as="sourcePoint" />
            <mxPoint x="1200" y="900.0000000000005" as="targetPoint" />
            <Array as="points">
              <mxPoint x="1330" y="960" />
            </Array>
          </mxGeometry>
        </mxCell>
        <mxCell id="5vfyrUOiTw-HqMpe8hi3-87" value="&lt;font style=&quot;font-size: 14px;&quot;&gt;&lt;b style=&quot;&quot;&gt;Binary Data&lt;/b&gt;&lt;/font&gt;" style="text;html=1;strokeColor=#CCFFFF;fillColor=#FFFFFF;align=center;verticalAlign=middle;whiteSpace=wrap;rounded=0;" vertex="1" parent="1">
          <mxGeometry x="240" y="730" width="100" height="30" as="geometry" />
        </mxCell>
        <mxCell id="5vfyrUOiTw-HqMpe8hi3-57" value="DB on&#xa;Instance" style="sketch=0;outlineConnect=0;fontColor=#232F3E;gradientColor=none;strokeColor=#232F3E;fillColor=#ffffff;dashed=0;verticalLabelPosition=bottom;verticalAlign=top;align=center;html=1;fontSize=12;fontStyle=0;aspect=fixed;shape=mxgraph.aws4.resourceIcon;resIcon=mxgraph.aws4.db_on_instance;fontFamily=Comic Sans MS;" vertex="1" parent="1">
          <mxGeometry x="985" y="750" width="60" height="60" as="geometry" />
        </mxCell>
        <mxCell id="5vfyrUOiTw-HqMpe8hi3-93" value="" style="edgeStyle=orthogonalEdgeStyle;html=1;endArrow=none;elbow=vertical;startArrow=block;startFill=1;strokeColor=#545B64;rounded=0;" edge="1" parent="1" source="5vfyrUOiTw-HqMpe8hi3-57" target="5vfyrUOiTw-HqMpe8hi3-73">
          <mxGeometry width="100" relative="1" as="geometry">
            <mxPoint x="930" y="1010" as="sourcePoint" />
            <mxPoint x="930" y="1130" as="targetPoint" />
            <Array as="points">
              <mxPoint x="1015" y="1167" />
            </Array>
          </mxGeometry>
        </mxCell>
        <mxCell id="5vfyrUOiTw-HqMpe8hi3-94" value="" style="edgeStyle=orthogonalEdgeStyle;html=1;endArrow=none;elbow=vertical;startArrow=block;startFill=1;strokeColor=#545B64;rounded=0;" edge="1" parent="1" source="5vfyrUOiTw-HqMpe8hi3-36" target="5vfyrUOiTw-HqMpe8hi3-35">
          <mxGeometry width="100" relative="1" as="geometry">
            <mxPoint x="1025.0000000000005" y="760" as="sourcePoint" />
            <mxPoint x="960" y="580" as="targetPoint" />
            <Array as="points">
              <mxPoint x="1200" y="568" />
            </Array>
          </mxGeometry>
        </mxCell>
        <mxCell id="5vfyrUOiTw-HqMpe8hi3-95" value="" style="edgeStyle=orthogonalEdgeStyle;html=1;endArrow=none;elbow=vertical;startArrow=block;startFill=1;strokeColor=#545B64;rounded=0;" edge="1" parent="1" source="5vfyrUOiTw-HqMpe8hi3-36" target="5vfyrUOiTw-HqMpe8hi3-73">
          <mxGeometry width="100" relative="1" as="geometry">
            <mxPoint x="1025.0000000000005" y="820" as="sourcePoint" />
            <mxPoint x="960" y="1177" as="targetPoint" />
            <Array as="points">
              <mxPoint x="1120" y="799" />
              <mxPoint x="1120" y="1177" />
            </Array>
          </mxGeometry>
        </mxCell>
        <mxCell id="5vfyrUOiTw-HqMpe8hi3-96" value="&lt;font style=&quot;font-size: 14px;&quot;&gt;&lt;b style=&quot;&quot;&gt;2D 도면 업로드&lt;/b&gt;&lt;/font&gt;" style="text;html=1;strokeColor=#CCFFFF;fillColor=#FFFFFF;align=center;verticalAlign=middle;whiteSpace=wrap;rounded=0;" vertex="1" parent="1">
          <mxGeometry x="810" y="830" width="100" height="30" as="geometry" />
        </mxCell>
      </root>
    </mxGraphModel>
  </diagram>
</mxfile>
